<svg aria-hidden="true" style="position: absolute; width: 0; height: 0; overflow: hidden;" version="1.1" xmlns="http://www.w3.org/2000/svg" xmlns:xlink="http://www.w3.org/1999/xlink">
  <defs>
	
    <symbol id="icon-basketball" viewBox="0 0 24 24">
      <path d="M4.929 19.071c1.895 1.895 4.405 2.938 7.071 2.938s5.177-1.043 7.071-2.938c3.899-3.899 3.899-10.243 0-14.143-1.894-1.894-4.406-2.938-7.071-2.938s-5.177 1.044-7.071 2.939c-3.899 3.898-3.899 10.243 0 14.142zM12.309 4.006c1.67 0.060 3.278 0.648 4.594 1.678l-4.903 4.902-1.46-1.46c1.161-1.479 1.792-3.308 1.769-5.12zM9.11 7.696l-2.012-2.012c0.945-0.74 2.045-1.257 3.218-1.51-0.015 1.236-0.445 2.477-1.206 3.522zM7.686 9.1c-1.019 0.696-2.225 1.065-3.459 1.057 0.26-1.113 0.757-2.156 1.458-3.058l2.001 2.001zM4.011 12.146c0.077 0.002 0.154 0.014 0.231 0.014 1.76 0.006 3.473-0.566 4.877-1.626l1.467 1.466-4.901 4.901c-1.058-1.362-1.645-3.031-1.674-4.755zM16.305 14.891c1.042-0.758 2.28-1.188 3.508-1.206-0.25 1.171-0.762 2.271-1.497 3.217l-2.011-2.011zM16.902 18.316c-0.902 0.705-1.945 1.206-3.059 1.47-0.011-1.238 0.358-2.45 1.057-3.472l2.002 2.002zM11.858 20.002c-1.728-0.027-3.4-0.62-4.761-1.686l4.903-4.902 1.463 1.463c-1.103 1.444-1.659 3.266-1.605 5.125zM19.982 11.692c-1.807-0.018-3.633 0.61-5.108 1.768l-1.46-1.46 4.901-4.901c1.023 1.319 1.606 2.925 1.667 4.593z"></path>
    </symbol>
    
		<symbol id="icon-cheese" viewBox="0 0 24 24">
      <path d="M15.16 2c-0.228-0.034-0.462 0.012-0.66 0.13l-12 7c-0.047 0.028-0.091 0.061-0.13 0.1l-0.1 0.080c-0.068 0.079-0.125 0.166-0.17 0.26-0.071 0.132-0.106 0.28-0.1 0.43v10c0 0.265 0.105 0.52 0.293 0.707s0.442 0.293 0.707 0.293h18c0.265 0 0.52-0.105 0.707-0.293s0.293-0.442 0.293-0.707v-10c0.004-1.931-0.684-3.799-1.939-5.267s-2.993-2.437-4.901-2.733zM15.16 4.050c1.202 0.246 2.302 0.851 3.153 1.735s1.415 2.005 1.617 3.215h-13.23l8.46-4.95zM20 19h-16v-8h16v8z"></path>
      <path d="M6.5 18c0.828 0 1.5-0.672 1.5-1.5s-0.672-1.5-1.5-1.5c-0.828 0-1.5 0.672-1.5 1.5s0.672 1.5 1.5 1.5z"></path>
      <path d="M11.5 15c0.828 0 1.5-0.672 1.5-1.5s-0.672-1.5-1.5-1.5c-0.828 0-1.5 0.672-1.5 1.5s0.672 1.5 1.5 1.5z"></path>
      <path d="M17 18c1.105 0 2-0.895 2-2s-0.895-2-2-2c-1.105 0-2 0.895-2 2s0.895 2 2 2z"></path>
    </symbol>
    
		<symbol id="icon-chevron-down" viewBox="0 0 24 24">
      <path d="M16.293 8.293l-4.293 4.293-4.293-4.293-1.414 1.414 5.707 5.707 5.707-5.707-1.414-1.414z"></path>
    </symbol>
    
		<symbol id="icon-chevron-left" viewBox="0 0 24 24">
      <path d="M13.293 6.293l-5.707 5.707 5.707 5.707 1.414-1.414-4.293-4.293 4.293-4.293-1.414-1.414z"></path>
    </symbol>
    
		<symbol id="icon-chevron-right" viewBox="0 0 24 24">
      <path d="M9.707 16.95l5.707-5.707-5.707-5.707-1.414 1.414 4.293 4.293-4.293 4.293 1.414 1.414z"></path>
    </symbol>
    
		<symbol id="icon-chevron-up" viewBox="0 0 24 24">
      <path d="M6.293 14.293l1.414 1.414 4.293-4.293 4.293 4.293 1.414-1.414-5.707-5.707-5.707 5.707z"></path>
    </symbol>
    
		<symbol id="icon-close-btn" viewBox="0 0 24 24">
      <path d="M16.192 6.344l-4.243 4.242-4.242-4.242-1.414 1.414 4.242 4.242-4.242 4.242 1.414 1.414 4.242-4.242 4.243 4.242 1.414-1.414-4.242-4.242 4.242-4.242-1.414-1.414z"></path>
    </symbol>
    
		<symbol id="icon-envelope" viewBox="0 0 24 24">
      <path d="M20 4h-16c-1.103 0-2 0.897-2 2v12c0 1.103 0.897 2 2 2h16c1.103 0 2-0.897 2-2v-12c0-1.103-0.897-2-2-2zM20 6v0.511l-8 6.223-8-6.222v-0.512h16zM4 18v-8.956l7.386 5.745c0.175 0.138 0.391 0.212 0.614 0.212s0.439-0.075 0.614-0.212l7.386-5.745 0.002 8.956h-16.002z"></path>
    </symbol>
    
		<symbol id="icon-Facebook" viewBox="0 0 24 24">
      <path d="M22 12.304c0-5.557-4.477-10.061-10-10.061s-10 4.505-10 10.061c0 5.022 3.657 9.184 8.438 9.939v-7.031h-2.539v-2.908h2.539v-2.217c0-2.522 1.493-3.914 3.777-3.914 1.094 0 2.239 0.197 2.239 0.197v2.476h-1.261c-1.242 0-1.63 0.776-1.63 1.571v1.887h2.773l-0.443 2.908h-2.33v7.031c4.781-0.755 8.438-4.917 8.438-9.939z"></path>
    </symbol>
    
		<symbol id="icon-Google" viewBox="0 0 24 24">
      <path d="M21 11.79c0 4.15-2.21 9.21-8.87 9.21-5.005 0.033-9.091-3.995-9.13-9 0.039-5.005 4.125-9.033 9.13-9 2.071 0.008 4.078 0.712 5.7 2 0.112 0.092 0.181 0.226 0.19 0.37 0.001 0.146-0.057 0.286-0.16 0.39-0.651 0.595-1.272 1.223-1.86 1.88-0.171 0.188-0.458 0.214-0.66 0.060-0.924-0.684-2.051-1.036-3.2-1-2.955 0-5.35 2.395-5.35 5.35s2.395 5.35 5.35 5.35c3 0 4.27-1.28 4.93-3.55h-4.57c-0.276 0-0.5-0.224-0.5-0.5v-2.65c0-0.276 0.224-0.5 0.5-0.5h8c0.23-0.002 0.424 0.171 0.45 0.4 0.037 0.396 0.054 0.793 0.050 1.19z"></path>
    </symbol>
    
		<symbol id="icon-health" viewBox="0 0 24 24">
      <path d="M19.649 5.286l-5.649 3.262v-6.523h-4v6.523l-5.649-3.262-2 3.465 5.648 3.261-5.648 3.261 2 3.465 5.649-3.261v6.523h4v-6.523l5.649 3.261 2-3.465-5.648-3.261 5.648-3.261-2-3.465z"></path>
    </symbol>
    
		<symbol id="icon-Instagram" viewBox="0 0 24 24">
      <path d="M11.999 4.621c2.404 0 2.689 0.011 3.634 0.053 0.879 0.039 1.353 0.186 1.67 0.309 0.418 0.162 0.72 0.359 1.033 0.672 0.317 0.317 0.51 0.615 0.675 1.034 0.123 0.317 0.271 0.794 0.309 1.67 0.042 0.949 0.053 1.234 0.053 3.635s-0.011 2.689-0.053 3.635c-0.039 0.879-0.186 1.353-0.309 1.67-0.162 0.418-0.358 0.72-0.672 1.033-0.317 0.317-0.615 0.51-1.033 0.675-0.317 0.123-0.795 0.271-1.67 0.309-0.949 0.042-1.234 0.053-3.635 0.053s-2.689-0.011-3.635-0.053c-0.879-0.039-1.353-0.186-1.67-0.309-0.418-0.162-0.72-0.358-1.034-0.672-0.317-0.317-0.51-0.615-0.675-1.033-0.123-0.317-0.271-0.795-0.309-1.67-0.042-0.949-0.053-1.234-0.053-3.635s0.011-2.689 0.053-3.635c0.039-0.879 0.186-1.353 0.309-1.67 0.162-0.418 0.359-0.72 0.672-1.034 0.317-0.317 0.615-0.51 1.034-0.675 0.317-0.123 0.794-0.271 1.67-0.309 0.945-0.042 1.231-0.053 3.635-0.053h0.001zM11.999 3.001c-2.443 0-2.749 0.011-3.709 0.053-0.956 0.042-1.614 0.197-2.183 0.418-0.594 0.232-1.097 0.538-1.596 1.040-0.503 0.499-0.809 1.002-1.040 1.592-0.222 0.573-0.376 1.227-0.418 2.183-0.042 0.963-0.053 1.269-0.053 3.712s0.011 2.749 0.053 3.709c0.042 0.956 0.197 1.614 0.418 2.183 0.232 0.594 0.538 1.097 1.040 1.596 0.499 0.499 1.002 0.809 1.592 1.037 0.573 0.222 1.227 0.376 2.183 0.418 0.959 0.042 1.265 0.053 3.709 0.053s2.749-0.011 3.709-0.053c0.956-0.042 1.614-0.197 2.183-0.418 0.591-0.228 1.093-0.538 1.592-1.037s0.809-1.002 1.037-1.592c0.222-0.573 0.376-1.227 0.418-2.183 0.042-0.959 0.053-1.265 0.053-3.709s-0.011-2.749-0.053-3.709c-0.042-0.956-0.197-1.614-0.418-2.183-0.222-0.598-0.528-1.1-1.030-1.6-0.499-0.499-1.002-0.809-1.592-1.037-0.573-0.222-1.227-0.376-2.183-0.418-0.963-0.046-1.269-0.056-3.712-0.056l-0.001 0.001z"></path>
      <path d="M11.999 7.377c-2.552 0-4.623 2.070-4.623 4.623s2.070 4.623 4.623 4.623c2.552 0 4.623-2.070 4.623-4.623s-2.070-4.623-4.623-4.623zM11.999 14.998c-1.656 0-2.998-1.342-2.998-2.998s1.342-2.998 2.998-2.998c1.656 0 2.998 1.343 2.998 2.998s-1.342 2.998-2.998 2.998z"></path>
      <path d="M17.882 7.194c0 0.596-0.483 1.079-1.079 1.079s-1.079-0.483-1.079-1.079c0-0.596 0.483-1.079 1.079-1.079s1.079 0.483 1.079 1.079z"></path>
    </symbol>
    
		<symbol id="icon-LinkedIn" viewBox="0 0 24 24">
      <path d="M19.313 3h-14.625c-0.928 0-1.688 0.759-1.688 1.688v14.625c0 0.928 0.759 1.688 1.688 1.688h14.625c0.928 0 1.688-0.759 1.688-1.688v-14.625c0-0.928-0.759-1.688-1.688-1.688zM9.75 17.625h-2.25v-7.875h2.25v7.875zM8.625 8.625c-0.622 0-1.125-0.503-1.125-1.125s0.503-1.125 1.125-1.125c0.622 0 1.125 0.503 1.125 1.125s-0.503 1.125-1.125 1.125zM17.625 17.625h-2.25v-4.5c0-0.622-0.503-1.125-1.125-1.125s-1.125 0.503-1.125 1.125v4.5h-2.25v-7.875h2.25v1.396c0.464-0.636 1.174-1.396 1.969-1.396 1.399 0 2.531 1.259 2.531 2.813v5.063z"></path>
    </symbol>
    
		<symbol id="icon-logo" viewBox="0 0 49 24">
      <path d="M45.83 12.64c-0.576-0.019-1.15-0.038-1.727-0.019-2.677 0.111-5.709 0.579-7.612 2.634-0.908 0.981-1.401 2.196-1.332 3.531 0.046 0.755 0.248 1.492 0.595 2.166-0.003 0.006-0.006 0.011-0.010 0.017-0.002 0.003-0.003 0.006-0.005 0.009-0.102 0.172-0.318 0.411-0.536 0.652-0.275 0.305-0.554 0.613-0.609 0.793-0.014 0.046-0.004 0.101 0.010 0.146 0.045 0.15 0.202 0.267 0.324 0.359l0.009 0.007c0.269-0.261 0.514-0.545 0.758-0.828l0.020-0.023 0.495-0.596c1.314 0.735 2.605 0.967 4.079 0.563 1.805-0.494 3.201-1.76 4.101-3.351 1.002-1.771 1.463-4.045 1.53-6.057l-0.091-0.003zM43.215 14.415c0.007 0.002 0.014 0.003 0.020 0.005 0.064 0.016 0.122 0.030 0.177 0.073 0.058 0.046 0.104 0.118 0.1 0.192-0.005 0.089-0.038 0.134-0.1 0.196-0.193 0.193-0.427 0.362-0.656 0.528-0.101 0.073-0.202 0.146-0.298 0.22-0.606 0.463-1.204 0.936-1.793 1.42 0.372-0.089 1.618-0.299 1.943-0.19 0.1 0.034 0.134 0.083 0.174 0.175-0.009 0.137-0.051 0.22-0.183 0.277-0.060 0.026-0.507 0.069-1.008 0.117-0.571 0.055-1.213 0.116-1.433 0.168-0.14 0.033-0.25 0.078-0.367 0.159-0.177 0.123-0.338 0.276-0.496 0.427-0.059 0.056-0.117 0.112-0.176 0.166-0.52 0.476-1.029 0.955-1.528 1.452 0.354 0.077 0.874 0.052 1.378 0.028 0.567-0.027 1.114-0.053 1.378 0.069 0.043 0.055 0.056 0.113 0.050 0.182-0.005 0.056-0.038 0.091-0.078 0.127-0.218 0.195-2.366 0.133-2.699 0.096-0.013-0.002-0.027-0.004-0.042-0.007-0.074-0.013-0.157-0.026-0.227-0.012-0.539 0.11-1.278 0.933-1.599 1.346l0.020-0.045c0.15-0.345 0.3-0.691 0.509-1.006 0.353-0.534 1.354-1.522 1.845-1.989 0.078-0.074 0.169-0.15 0.263-0.227 0.207-0.172 0.427-0.355 0.55-0.558 0.123-0.205 0.196-0.633 0.273-1.082 0.097-0.564 0.199-1.162 0.413-1.393 0.062-0.067 0.081-0.071 0.167-0.080 0.084 0.037 0.139 0.072 0.186 0.153 0.035 0.059 0.039 0.118 0.030 0.183-0.022 0.159-0.079 0.326-0.134 0.49-0.030 0.089-0.060 0.176-0.083 0.261-0.080 0.288-0.141 0.58-0.202 0.872-0.007 0.033-0.014 0.066-0.021 0.099 0.283-0.269 0.602-0.508 0.917-0.745 0.102-0.077 0.204-0.153 0.305-0.231 0.152-0.117 0.305-0.234 0.458-0.351 0.666-0.51 1.334-1.022 1.967-1.566z"></path>
      <path d="M3.934 0.026c-0.010 0.001-0.021 0.003-0.031 0.005-1.143 0.135-2.177 0.65-2.897 1.548-0.882 1.1-1.123 2.504-0.956 3.872 0.145 1.185 0.695 2.305 1.666 3.042 0.969 0.736 2.097 0.944 3.294 0.852 1.164-0.158 2.215-0.677 2.938-1.609 0.839-1.081 1.070-2.508 0.887-3.833-0.166-1.204-0.774-2.325-1.767-3.059-0.9-0.665-2.020-0.935-3.134-0.818zM4.307 1.561c0.625-0.008 1.192 0.108 1.684 0.509 0.602 0.491 0.874 1.266 0.944 2.012 0.089 0.961-0.017 2.096-0.672 2.865-0.451 0.529-1.029 0.74-1.711 0.8-0.013 0.001-0.025 0.003-0.038 0.004-0.578 0.029-1.18-0.139-1.627-0.506-0.614-0.504-0.874-1.27-0.939-2.034-0.082-0.956-0.006-2.122 0.657-2.887 0.449-0.518 1.032-0.714 1.703-0.762z"></path>
      <path d="M17.838 2.438c-0.004 0-0.008 0.001-0.012 0.001-0.781 0.074-1.447 0.38-1.956 0.98-0.636 0.751-0.852 1.804-0.758 2.76 0.080 0.805 0.415 1.6 1.065 2.117 0.656 0.522 1.496 0.644 2.314 0.547 0.645-0.077 1.070-0.361 1.516-0.809 0.001 0.043 0.002 0.088 0.002 0.133 0.012 0.607 0.026 1.341-0.431 1.792-0.307 0.303-0.747 0.368-1.163 0.359-0.45-0.009-0.902-0.111-1.222-0.448-0.091-0.095-0.15-0.213-0.208-0.33-0.010-0.020-0.021-0.041-0.031-0.061-0.163-0-0.332-0.006-0.504-0.012-0.416-0.014-0.846-0.028-1.235 0.029-0.034 0.088-0.009 0.183 0.015 0.274 0.005 0.018 0.009 0.036 0.014 0.053 0.232 0.685 0.727 1.212 1.378 1.538 0.925 0.463 2.242 0.503 3.218 0.181 0.718-0.237 1.338-0.717 1.676-1.392 0.13-0.265 0.214-0.55 0.247-0.842 0.067-0.536 0.061-1.099 0.056-1.652-0.002-0.201-0.004-0.401-0.003-0.597l0.011-4.474c-0.178 0-0.357 0.001-0.535 0.002-0.418 0.002-0.836 0.004-1.253-0.001l-0.001 0.586c-0.656-0.534-1.315-0.802-2.179-0.737-0.008 0.001-0.015 0.001-0.023 0.002zM18.312 3.866c0.348-0.029 0.712 0.031 1.012 0.213 0.343 0.208 0.555 0.544 0.649 0.925 0.134 0.547 0.125 1.297-0.186 1.783-0.248 0.387-0.604 0.533-1.039 0.622-0.384 0.042-0.78-0.007-1.106-0.227-0.384-0.26-0.592-0.685-0.669-1.128-0.093-0.536-0.029-1.162 0.303-1.61 0.258-0.348 0.615-0.517 1.037-0.579z"></path>
      <path d="M29.96 15.289c-0.57-0.464-1.282-0.637-2.011-0.62-0.852 0.065-1.366 0.316-1.929 0.945l-0.003-0.799-1.813 0.001 0.001 9.066 1.845-0.002-0.003-1.337 0.003-1.692c0.668 0.548 1.383 0.828 2.262 0.752 0.774-0.066 1.451-0.413 1.951-1 0.699-0.821 0.905-1.963 0.803-3.006-0.084-0.863-0.412-1.742-1.106-2.308zM27.455 16.164c0.367-0.038 0.761 0.046 1.062 0.259 0.414 0.292 0.61 0.772 0.678 1.255 0.088 0.627 0.024 1.364-0.388 1.877-0.282 0.351-0.624 0.498-1.061 0.557-0.382 0.037-0.799-0.050-1.112-0.274-0.357-0.255-0.545-0.643-0.613-1.064-0.104-0.636-0.085-1.5 0.324-2.035 0.283-0.369 0.661-0.521 1.112-0.575z"></path>
      <path d="M23.165 17.863c-0.151-1.927-1.856-3.371-3.811-3.225-1.96 0.146-3.428 1.832-3.277 3.764s1.864 3.376 3.823 3.224c1.955-0.152 3.416-1.835 3.265-3.763zM19.464 16.097c0.34-0.039 0.717 0.045 1.008 0.218 0.399 0.236 0.643 0.637 0.748 1.076 0.153 0.636 0.125 1.465-0.241 2.030-0.265 0.409-0.628 0.603-1.097 0.7-0.426 0.017-0.805-0.016-1.168-0.265-0.405-0.277-0.624-0.73-0.705-1.198-0.109-0.63-0.059-1.401 0.336-1.932 0.281-0.379 0.66-0.559 1.119-0.629z"></path>
      <path d="M3.142 12.392c0.137-0.019 0.286-0.016 0.425-0.021 1.010-0.032 2.093 0.14 2.851 0.853 0.555 0.521 0.718 1.146 0.734 1.88l-1.828 0.007c-0.021-0.361-0.076-0.649-0.362-0.906-0.381-0.344-0.953-0.425-1.452-0.4-0.392 0.019-0.801 0.126-1.065 0.43-0.193 0.222-0.256 0.51-0.224 0.796 0.031 0.276 0.173 0.495 0.404 0.651 0.362 0.243 0.826 0.334 1.246 0.427 0.925 0.205 2.081 0.366 2.823 0.99 0.455 0.383 0.667 0.889 0.71 1.47 0.053 0.709-0.139 1.374-0.62 1.911-0.668 0.747-1.664 1.050-2.643 1.113-1.081 0.074-2.276-0.138-3.121-0.849-0.62-0.521-0.883-1.189-0.946-1.974l1.862-0.003c0.085 0.39 0.228 0.715 0.555 0.966 0.449 0.346 1.079 0.415 1.63 0.354 0.43-0.047 0.881-0.213 1.15-0.563 0.167-0.218 0.226-0.488 0.189-0.758-0.039-0.278-0.198-0.503-0.434-0.656-0.266-0.172-0.594-0.257-0.898-0.337-1.002-0.262-2.203-0.349-3.038-1-0.451-0.352-0.715-0.832-0.781-1.396-0.081-0.694 0.055-1.344 0.502-1.897 0.56-0.692 1.467-0.988 2.329-1.087z"></path>
      <path d="M28.388 2.908c-0.656-0.421-1.521-0.496-2.283-0.467-0.824 0.054-1.787 0.241-2.355 0.892-0.304 0.348-0.418 0.767-0.437 1.216l1.703 0.007c0.185-0.367 0.411-0.624 0.823-0.752 0.373-0.116 0.859-0.116 1.206 0.072 0.201 0.109 0.361 0.295 0.425 0.513 0.036 0.119 0.046 0.248 0.056 0.372 0.002 0.020 0.003 0.040 0.005 0.060-0.116 0.128-0.22 0.216-0.382 0.284-0.384 0.159-0.843 0.189-1.281 0.217-0.152 0.010-0.302 0.020-0.444 0.034-1.281 0.134-2.474 0.6-2.38 2.094 0.019 0.301 0.099 0.561 0.229 0.832 0.334 0.525 0.784 0.853 1.4 0.988 0.747 0.164 1.651 0.087 2.307-0.324 0.227-0.142 0.416-0.318 0.598-0.512 0.037 0.259 0.089 0.509 0.154 0.763l1.715-0.003c-0.189-0.892-0.175-1.818-0.161-2.735 0.004-0.247 0.008-0.494 0.007-0.739-0-0.085 0.001-0.171 0.001-0.258 0.004-0.544 0.009-1.131-0.167-1.635-0.135-0.386-0.397-0.696-0.741-0.917zM27.475 6.075l0.051 0.027c0.074 0.38-0.022 0.883-0.22 1.209-0.217 0.358-0.57 0.629-0.983 0.726-0.379 0.089-0.715 0.041-1.043-0.164-0.136-0.121-0.246-0.248-0.304-0.424-0.066-0.203-0.055-0.447 0.049-0.636 0.23-0.419 1.055-0.529 1.739-0.619 0.276-0.037 0.53-0.070 0.711-0.12z"></path>
      <path d="M8.546 12.317h1.835l0.002 3.355c0.083-0.107 0.166-0.214 0.261-0.311 0.465-0.478 1.102-0.691 1.764-0.703 0.687-0.012 1.404 0.163 1.904 0.65 0.316 0.309 0.524 0.715 0.62 1.141 0.137 0.607 0.068 1.297 0.068 1.918l0.001 3.055-1.833 0.001c-0.015-0.818-0.001-1.639-0.001-2.457-0.001-0.661 0.166-1.875-0.304-2.397-0.214-0.238-0.517-0.338-0.833-0.354-0.427-0.022-0.905 0.032-1.227 0.335-0.2 0.188-0.319 0.444-0.375 0.708-0.112 0.532-0.050 1.147-0.048 1.69l0.002 2.475-1.835 0.001c-0.020-1.030-0.002-2.065-0.002-3.096l0.001-6.011z"></path>
      <path d="M34.635 2.438c0.102-0.008 0.204-0.012 0.306-0.012 0.659-0.004 1.267 0.186 1.741 0.653 0.306 0.305 0.52 0.688 0.617 1.106 0.148 0.627 0.070 1.356 0.070 2l0.004 3.008h-1.82l0.002-2.73c0-0.493 0.038-1.028-0.029-1.517-0.029-0.208-0.078-0.414-0.205-0.587-0.18-0.247-0.485-0.396-0.788-0.429-0.497-0.055-0.93 0.022-1.333 0.321-0.2 0.222-0.291 0.411-0.348 0.703-0.095 0.477-0.041 1.031-0.041 1.516l0.005 2.723-1.876 0 0.003-6.606 1.807 0.001c0.001 0.289 0.004 0.578 0.009 0.867 0.045-0.058 0.089-0.115 0.135-0.171 0.452-0.554 1.044-0.77 1.742-0.845z"></path>
      <path d="M45.305 2.439c0.756-0.045 1.511 0.079 2.166 0.469 0.762 0.454 1.166 1.119 1.377 1.955-0.606-0.007-1.213-0.008-1.819-0.001-0.141-0.328-0.341-0.611-0.645-0.813-0.315-0.209-0.708-0.296-1.081-0.214-0.43 0.094-0.787 0.35-1.022 0.716-0.371 0.582-0.408 1.439-0.24 2.091 0.118 0.459 0.379 0.894 0.807 1.134 0.351 0.196 0.807 0.24 1.192 0.124 0.503-0.152 0.782-0.554 1.006-0.993l1.766-0.002c-0.126 0.491-0.297 0.937-0.625 1.335-0.548 0.665-1.355 1.019-2.209 1.106-0.943 0.096-1.89-0.119-2.631-0.718-0.728-0.589-1.134-1.448-1.215-2.366-0.084-0.96 0.119-1.932 0.76-2.682 0.621-0.725 1.473-1.059 2.413-1.141z"></path>
      <path d="M13.898 2.472c0.17-0.011 0.339 0.009 0.508 0.024l-0.001 1.688-0.272-0.002c-0.604-0.001-1.288 0.037-1.735 0.496-0.204 0.21-0.32 0.47-0.383 0.752-0.11 0.496-0.055 1.065-0.053 1.572l0.004 2.191c-0.54 0.001-1.285 0.065-1.806-0.015-0.053-0.075-0.038-0.148-0.041-0.238l0-6.351 1.811-0.001c0.009 0.306 0.020 0.613 0.034 0.919 0.071-0.114 0.147-0.221 0.234-0.323 0.423-0.495 1.074-0.658 1.7-0.711z"></path>
      <path d="M39.064 2.588l1.867 0.001-0.002 4.375c0 0.738 0.042 1.494-0.008 2.229l-1.863 0.001c0.030-0.857 0.013-1.719 0.013-2.577l-0.008-4.029z"></path>
      <path d="M39.017 0.020l2.069-0.002c-0.005 0.509-0.004 1.019 0.002 1.528l-2.071 0.001v-1.527z"></path>
    </symbol>
    
		<symbol id="icon-menu" viewBox="0 0 24 24">
      <path d="M4 6h16v2h-16v-2zM4 11h16v2h-16v-2zM4 16h16v2h-16v-2z"></path>
    </symbol>
    
		<symbol id="icon-phone" viewBox="0 0 24 24">
      <path d="M17.707 12.293c-0.093-0.093-0.203-0.167-0.324-0.217s-0.251-0.076-0.383-0.076c-0.131 0-0.261 0.026-0.383 0.076s-0.231 0.124-0.324 0.217l-1.594 1.594c-0.739-0.22-2.118-0.72-2.992-1.594s-1.374-2.253-1.594-2.992l1.594-1.594c0.093-0.093 0.167-0.203 0.217-0.324s0.076-0.251 0.076-0.383c0-0.131-0.026-0.261-0.076-0.383s-0.124-0.232-0.217-0.324l-4-4c-0.093-0.093-0.203-0.167-0.324-0.217s-0.251-0.076-0.383-0.076c-0.131 0-0.261 0.026-0.383 0.076s-0.232 0.124-0.324 0.217l-2.712 2.712c-0.38 0.38-0.594 0.902-0.586 1.435 0.023 1.424 0.4 6.37 4.298 10.268s8.844 4.274 10.269 4.298h0.028c0.528 0 1.027-0.208 1.405-0.586l2.712-2.712c0.093-0.093 0.167-0.203 0.217-0.324s0.076-0.251 0.076-0.383c0-0.131-0.026-0.261-0.076-0.383s-0.124-0.231-0.217-0.324l-4-4.001zM17.58 19.005c-1.248-0.021-5.518-0.356-8.873-3.712-3.366-3.366-3.692-7.651-3.712-8.874l2.005-2.005 2.586 2.586-1.293 1.293c-0.118 0.117-0.204 0.262-0.251 0.422s-0.055 0.328-0.021 0.49c0.024 0.115 0.611 2.842 2.271 4.502s4.387 2.247 4.502 2.271c0.162 0.035 0.331 0.028 0.491-0.019s0.304-0.134 0.421-0.252l1.294-1.293 2.586 2.586-2.006 2.005z"></path>
    </symbol>
    
		<symbol id="icon-restaurant" viewBox="0 0 24 24">
      <path d="M12 10h-2v-7h-2v7h-2v-7h-2v8c0 1.654 1.346 3 3 3h1v7h2v-7h1c1.654 0 3-1.346 3-3v-8h-2v7zM19 3h-1c-1.159 0-2 1.262-2 3v8h2v7h2v-17c0-0.265-0.105-0.52-0.293-0.707s-0.442-0.293-0.707-0.293z"></path>
    </symbol>
    
		<symbol id="icon-star" viewBox="0 0 24 24">
      <path d="M6.516 14.323l-1.49 6.452c-0.046 0.195-0.032 0.4 0.040 0.588s0.199 0.349 0.364 0.463c0.165 0.114 0.361 0.176 0.562 0.177s0.397-0.058 0.564-0.17l5.445-3.63 5.445 3.63c0.17 0.113 0.371 0.171 0.576 0.167s0.402-0.071 0.568-0.192c0.165-0.12 0.29-0.289 0.356-0.482s0.073-0.402 0.017-0.599l-1.829-6.4 4.536-4.082c0.145-0.131 0.249-0.301 0.298-0.49s0.042-0.389-0.021-0.574-0.178-0.348-0.333-0.468c-0.154-0.12-0.34-0.192-0.535-0.208l-5.701-0.454-2.467-5.461c-0.079-0.176-0.207-0.325-0.368-0.43s-0.35-0.161-0.543-0.161c-0.193 0-0.381 0.056-0.543 0.161s-0.29 0.254-0.368 0.43l-2.467 5.461-5.701 0.453c-0.192 0.015-0.375 0.085-0.527 0.202s-0.269 0.275-0.334 0.455c-0.065 0.181-0.077 0.376-0.034 0.564s0.139 0.358 0.277 0.492l4.214 4.107zM9.369 9.997c0.178-0.014 0.35-0.076 0.496-0.179s0.262-0.244 0.336-0.407l1.799-3.981 1.799 3.981c0.073 0.163 0.189 0.304 0.336 0.407s0.318 0.165 0.496 0.179l3.972 0.315-3.271 2.944c-0.284 0.256-0.397 0.65-0.293 1.018l1.253 4.385-3.736-2.491c-0.164-0.11-0.357-0.169-0.555-0.169s-0.39 0.059-0.555 0.169l-3.904 2.603 1.050-4.546c0.039-0.167 0.033-0.342-0.015-0.506s-0.138-0.314-0.261-0.434l-3.038-2.962 4.090-0.326z"></path>
    </symbol>
    
		<symbol id="icon-star-black" viewBox="0 0 25 24">
      <path d="M11.458 0.773c0.434-1.031 1.913-1.031 2.347 0l2.563 6.087c0.183 0.435 0.597 0.732 1.072 0.769l6.652 0.527c1.127 0.089 1.584 1.479 0.725 2.205l-5.068 4.289c-0.362 0.306-0.52 0.787-0.41 1.245l1.548 6.413c0.262 1.086-0.934 1.945-1.899 1.363l-5.695-3.436c-0.407-0.246-0.918-0.246-1.325 0l-5.695 3.436c-0.965 0.582-2.161-0.277-1.899-1.363l1.548-6.413c0.111-0.458-0.047-0.939-0.409-1.245l-5.068-4.289c-0.859-0.727-0.402-2.116 0.725-2.205l6.652-0.527c0.475-0.038 0.889-0.335 1.072-0.769l2.563-6.087z"></path>
    </symbol>
    
		<symbol id="icon-star-empty" viewBox="0 0 25 24">
      <path fill="none" stroke-linejoin="miter" stroke-linecap="butt" stroke-miterlimit="4" stroke-width="1.2632" d="M12.039 1.019c0.217-0.516 0.967-0.516 1.184 0l2.562 6.086c0.276 0.655 0.897 1.099 1.605 1.155l6.651 0.527c0.578 0.046 0.785 0.739 0.368 1.093l-5.069 4.289c-0.543 0.459-0.783 1.184-0.616 1.876l1.549 6.412c0.126 0.52-0.457 0.977-0.96 0.674h-0.001l-5.693-3.435c-0.607-0.367-1.371-0.367-1.979 0l-5.694 3.435c-0.503 0.304-1.085-0.153-0.96-0.674l1.549-6.412c0.167-0.692-0.073-1.417-0.616-1.876l-5.069-4.289c-0.417-0.354-0.211-1.047 0.368-1.093l6.651-0.527c0.707-0.056 1.329-0.499 1.605-1.155l2.562-6.086z"></path>
    </symbol>
    
		<symbol id="icon-X" viewBox="0 0 24 24">
      <path d="M17.176 4.242h2.76l-6.030 6.777 7.094 9.223h-5.554l-4.35-5.593-4.978 5.593h-2.762l6.45-7.249-6.805-8.751h5.695l3.932 5.113 4.548-5.113zM16.207 18.618h1.53l-9.872-12.836h-1.641l9.984 12.836z"></path>
    </symbol>
    
		<symbol id="icon-Youtube" viewBox="0 0 24 24">
      <path d="M21.593 7.203c-0.114-0.423-0.337-0.808-0.646-1.118s-0.694-0.533-1.116-0.648c-1.566-0.43-7.831-0.437-7.831-0.437s-6.264-0.007-7.831 0.404c-0.422 0.12-0.806 0.347-1.115 0.658s-0.533 0.697-0.651 1.12c-0.413 1.566-0.417 4.814-0.417 4.814s-0.004 3.264 0.406 4.814c0.23 0.857 0.905 1.534 1.763 1.765 1.582 0.43 7.83 0.437 7.83 0.437s6.265 0.007 7.831-0.403c0.423-0.115 0.808-0.338 1.118-0.647s0.534-0.694 0.649-1.116c0.414-1.565 0.417-4.812 0.417-4.812s0.020-3.265-0.407-4.831zM9.996 15.005l0.005-6 5.207 3.005-5.212 2.995z"></path>
    </symbol>
  
	</defs>
</svg>