<svg width="48" height="48" viewBox="0 0 48 48" fill="none" xmlns="http://www.w3.org/2000/svg">
<path d="M9.85802 38.142C13.648 41.932 18.668 44.018 24 44.018C29.332 44.018 34.354 41.932 38.142 38.142C45.94 30.344 45.94 17.656 38.142 9.85598C34.354 6.06798 29.33 3.97998 24 3.97998C18.67 3.97998 13.646 6.06798 9.85802 9.85798C2.06002 17.654 2.06002 30.344 9.85802 38.142ZM24.618 8.01198C27.9583 8.13221 31.1746 9.30703 33.806 11.368L24 21.172L21.08 18.252C23.402 15.294 24.664 11.636 24.618 8.01198ZM18.22 15.392L14.196 11.368C16.0851 9.8872 18.2858 8.85459 20.632 8.34798C20.602 10.82 19.742 13.302 18.22 15.392ZM15.372 18.2C13.3347 19.5918 10.9214 20.3293 8.45402 20.314C8.9737 18.0889 9.96844 16.0026 11.37 14.198L15.372 18.2ZM8.02202 24.292C8.17602 24.296 8.33002 24.32 8.48402 24.32C12.0034 24.3312 15.4295 23.1889 18.238 21.068L21.172 24L11.37 33.802C9.25475 31.0776 8.07999 27.7407 8.02202 24.292ZM32.61 29.782C34.694 28.266 37.17 27.406 39.626 27.37C39.1257 29.7129 38.1022 31.9124 36.632 33.804L32.61 29.782ZM33.804 36.632C32.0006 38.0417 29.9135 39.0447 27.686 39.572C27.6635 37.0955 28.4013 34.6718 29.8 32.628L33.804 36.632ZM23.716 40.004C20.2591 39.949 16.9151 38.7648 14.194 36.632L24 26.828L26.926 29.754C24.72 32.642 23.608 36.286 23.716 40.004ZM39.964 23.384C36.35 23.348 32.698 24.604 29.748 26.92L26.828 24L36.63 14.198C38.6759 16.8353 39.8421 20.0484 39.964 23.384Z" fill="white"/>
</svg>
