<svg width="48" height="48" viewBox="0 0 48 48" fill="none" xmlns="http://www.w3.org/2000/svg">
<path d="M30.32 4.00006C29.8631 3.93169 29.3967 4.02356 29 4.26006L4.99995 18.2601C4.90507 18.3153 4.81768 18.3825 4.73995 18.4601L4.53995 18.6201C4.40401 18.7775 4.28967 18.9524 4.19995 19.1401C4.0578 19.4038 3.98875 19.7007 3.99995 20.0001V40.0001C3.99995 40.5305 4.21067 41.0392 4.58574 41.4143C4.96081 41.7893 5.46952 42.0001 5.99995 42.0001H42C42.5304 42.0001 43.0391 41.7893 43.4142 41.4143C43.7892 41.0392 44 40.5305 44 40.0001V20.0001C44.0075 16.1386 42.632 12.402 40.1226 9.46702C37.6132 6.53204 34.1357 4.59266 30.32 4.00006ZM30.32 8.10006C32.7245 8.59241 34.9233 9.80205 36.6264 11.5694C38.3296 13.3368 39.457 15.5789 39.86 18.0001H13.4L30.32 8.10006ZM40 38.0001H7.99995V22.0001H40V38.0001Z" fill="white"/>
<path d="M13 36C14.6569 36 16 34.6569 16 33C16 31.3431 14.6569 30 13 30C11.3431 30 10 31.3431 10 33C10 34.6569 11.3431 36 13 36Z" fill="white"/>
<path d="M23 30C24.6569 30 26 28.6569 26 27C26 25.3431 24.6569 24 23 24C21.3431 24 20 25.3431 20 27C20 28.6569 21.3431 30 23 30Z" fill="white"/>
<path d="M34 36C36.2091 36 38 34.2091 38 32C38 29.7909 36.2091 28 34 28C31.7909 28 30 29.7909 30 32C30 34.2091 31.7909 36 34 36Z" fill="white"/>
</svg>
